<svg xmlns="http://www.w3.org/2000/svg" viewBox="0 0 128 128">
  <defs>
    <linearGradient id="b" x1="0" y1="0" x2="0" y2="1"><stop offset="0" stop-color="#43434c"/><stop offset="1" stop-color="#17171c"/></linearGradient>
    <linearGradient id="s" x1="0" y1="0" x2="0" y2="1"><stop offset="0" stop-color="#3f97ff"/><stop offset="1" stop-color="#bfe1ff"/></linearGradient>
  </defs>
  <rect x="4" y="4" width="120" height="120" rx="28" fill="url(#b)"/>
  <rect x="4.5" y="4.5" width="119" height="119" rx="27.5" fill="none" stroke="#fff" stroke-opacity=".14"/>
  <rect x="17" y="30" width="72" height="50" rx="8" fill="#0d0d11" stroke="#fff" stroke-opacity=".12"/>
  <rect x="24" y="36" width="58" height="21" rx="3.5" fill="#f7efdc"/>
  <rect x="24" y="36" width="58" height="5.5" rx="2" fill="#e2392f"/>
  <path d="M30 48h20M30 52.5h32" stroke="#b3a585" stroke-width="2" stroke-linecap="round"/>
  <rect x="33" y="62" width="40" height="13" rx="6.5" fill="#050507"/>
  <circle cx="44" cy="68.5" r="4.4" fill="#ececf1"/>
  <circle cx="62" cy="68.5" r="4.4" fill="#ececf1"/>
  <g transform="rotate(9 86 80)">
    <rect x="62" y="58" width="46" height="42" rx="3" fill="#fff"/>
    <rect x="66" y="62" width="38" height="25" rx="1" fill="url(#s)"/>
    <path d="M66 81c5-5 10-6.5 15-3.5s8.5 2 12-.8 7.5-2 11 1V87H66z" fill="#33a046"/>
    <circle cx="97" cy="68" r="3.6" fill="#ffd54a"/>
  </g>
</svg>
