<svg xmlns="http://www.w3.org/2000/svg" viewBox="0 0 128 128">
  <defs>
    <radialGradient id="bg" cx="50%" cy="30%" r="80%"><stop offset="0" stop-color="#fff0dc"/><stop offset="1" stop-color="#f6c08a"/></radialGradient>
    <radialGradient id="skin" cx="44%" cy="38%" r="70%"><stop offset="0" stop-color="#f6d2b8"/><stop offset="1" stop-color="#e0a37c"/></radialGradient>
    <linearGradient id="hair" x1="0" y1="0" x2="0" y2="1"><stop offset="0" stop-color="#4b3628"/><stop offset="1" stop-color="#2a1d15"/></linearGradient>
    <clipPath id="c"><circle cx="64" cy="64" r="64"/></clipPath>
  </defs>
  <g clip-path="url(#c)">
    <rect width="128" height="128" fill="url(#bg)"/>
    <path d="M10 132 C12 110 34 98 64 98 C94 98 116 110 118 132 Z" fill="#3c78d8"/>
    <path d="M10 108 H118 M10 118 H118 M10 128 H118" stroke="#eaf2ff" stroke-width="4"/>
    <path d="M55 84 L55 100 C59 104 69 104 73 100 L73 84 Z" fill="#dc9a76"/>
    <ellipse cx="35" cy="68" rx="6" ry="8" fill="#e8a985"/>
    <ellipse cx="93" cy="68" rx="6" ry="8" fill="#e8a985"/>
    <ellipse cx="64" cy="64" rx="29" ry="30" fill="url(#skin)"/>
    <path d="M34 64 C30 38 46 25 66 26 C87 27 98 40 94 64 C91 53 86 46 78 43 C68 47 56 46 47 40 C42 46 37 54 34 64 Z" fill="url(#hair)"/>
    <path d="M50 38 C60 42 70 42 80 38" stroke="#6b5040" stroke-width="2.5" fill="none" stroke-linecap="round" opacity=".7"/>
    <ellipse cx="53.5" cy="68" rx="3.9" ry="4.7" fill="#2b2220"/>
    <ellipse cx="74.5" cy="68" rx="3.9" ry="4.7" fill="#2b2220"/>
    <circle cx="55" cy="66.2" r="1.4" fill="#fff"/>
    <circle cx="76" cy="66.2" r="1.4" fill="#fff"/>
    <path d="M47.5 59.5 Q53 56.5 58.5 59" stroke="#3a2a20" stroke-width="2.2" fill="none" stroke-linecap="round"/>
    <path d="M69.5 59 Q75 56.5 80.5 59.5" stroke="#3a2a20" stroke-width="2.2" fill="none" stroke-linecap="round"/>
    <path d="M62 74 Q64 76.5 66 74" stroke="#de9470" stroke-width="2" fill="none" stroke-linecap="round"/>
    <ellipse cx="45" cy="78" rx="5.5" ry="3.4" fill="#ff7f7a" opacity=".35"/>
    <ellipse cx="83" cy="78" rx="5.5" ry="3.4" fill="#ff7f7a" opacity=".35"/>
    <path d="M56 81 Q64 87.5 72 81" stroke="#8c3b2e" stroke-width="2.6" fill="none" stroke-linecap="round"/>
  </g>
</svg>
