<svg xmlns="http://www.w3.org/2000/svg" viewBox="0 0 128 128">
  <defs>
    <radialGradient id="bg" cx="50%" cy="30%" r="80%"><stop offset="0" stop-color="#ffefc2"/><stop offset="1" stop-color="#f6c75a"/></radialGradient>
    <radialGradient id="skin" cx="44%" cy="38%" r="70%"><stop offset="0" stop-color="#ffe6d2"/><stop offset="1" stop-color="#f3bb95"/></radialGradient>
    <linearGradient id="hair" x1="0" y1="0" x2="0" y2="1"><stop offset="0" stop-color="#fbe39a"/><stop offset="1" stop-color="#dcaa48"/></linearGradient>
    <clipPath id="c"><circle cx="64" cy="64" r="64"/></clipPath>
    <clipPath id="shirt"><path d="M10 132 C12 110 34 98 64 98 C94 98 116 110 118 132 Z"/></clipPath>
  </defs>
  <g clip-path="url(#c)">
    <rect width="128" height="128" fill="url(#bg)"/>
    <g clip-path="url(#shirt)">
      <rect y="96" width="128" height="40" fill="#e5483e"/>
      <rect y="106" width="128" height="5" fill="#fff6ee"/>
      <rect y="117" width="128" height="5" fill="#fff6ee"/>
    </g>
    <path d="M55 84 L55 100 C59 104 69 104 73 100 L73 84 Z" fill="#eaa886"/>
    <ellipse cx="35" cy="68" rx="6" ry="8" fill="#f1b58f"/>
    <ellipse cx="93" cy="68" rx="6" ry="8" fill="#f1b58f"/>
    <ellipse cx="64" cy="64" rx="29" ry="30" fill="url(#skin)"/>
    <path d="M33 66 C29 40 44 25 64 25 C84 25 99 40 95 66 C93 58 90 52 86 50 C81 54 75 55 69 52 C63 55 55 55 49 52 C43 54 37 58 33 66 Z" fill="url(#hair)"/>
    <path d="M46 34 C54 29 66 28 76 31" stroke="#fff3c8" stroke-width="3" fill="none" stroke-linecap="round" opacity=".7"/>
    <ellipse cx="53.5" cy="68" rx="3.9" ry="4.7" fill="#2b2220"/>
    <ellipse cx="74.5" cy="68" rx="3.9" ry="4.7" fill="#2b2220"/>
    <circle cx="55" cy="66.2" r="1.4" fill="#fff"/>
    <circle cx="76" cy="66.2" r="1.4" fill="#fff"/>
    <path d="M47.5 59.5 Q53 56.5 58.5 59" stroke="#c99a45" stroke-width="2.2" fill="none" stroke-linecap="round"/>
    <path d="M69.5 59 Q75 56.5 80.5 59.5" stroke="#c99a45" stroke-width="2.2" fill="none" stroke-linecap="round"/>
    <path d="M62 74 Q64 76.5 66 74" stroke="#de9470" stroke-width="2" fill="none" stroke-linecap="round"/>
    <ellipse cx="45" cy="78" rx="5.5" ry="3.4" fill="#ff7f7a" opacity=".35"/>
    <ellipse cx="83" cy="78" rx="5.5" ry="3.4" fill="#ff7f7a" opacity=".35"/>
    <path d="M55 81 Q64 91 73 81 Q64 85 55 81 Z" fill="#8c3b2e"/>
    <path d="M59 85.5 Q64 88.5 69 85.5 Q64 86.6 59 85.5 Z" fill="#ef8b80"/>
  </g>
</svg>
